# xmcd
#
# Track frame offsets: 
#        150
#        12314
#        27435
#        40495
#        53127
#        65392
#        76210
#        87059
#        98618
#        109884
#        129403
#        139499
#        151579
#        163880
#        174590
#        186519
#        197324
#        207913
#        221087
#        235983
#        248688
#        264897
#        275850
#        287472
#        299374
#
# Disc length: 4113 seconds
#
# Revision: 0
# Processed by: cddbd v1.5.2PL0 Copyright (c) Steve Scherf et al.
# Submitted via: ExactAudioCopyFreeDBPlugin 1.0
#
DISCID=69100f19
DTITLE=Various Artist - Fifty Country Greats
DYEAR=2012
DGENRE=Country
TTITLE0=Johnny Cash and The Tennessee Two - I Walk The Line
TTITLE1=Billie Jo Spears - Blanket On The Ground
TTITLE2=Kenny Rogers - Ruby Don't Take Your Love To Town
TTITLE3=Lynn Anderson - Rose Garden
TTITLE4=Patsy Cline - Crazy
TTITLE5=Tammy Wynette - Stand By Your Man
TTITLE6=Dolly Parton - It Wasn't God Who Made Honky Tonk Angels
TTITLE7=Buck Owens - Under Your Spell Again
TTITLE8=Don Gibson - Sea Of Heartbreak
TTITLE9=Marty Robbins - El Paso
TTITLE10=Conway Twitty - It's Only Make Believe
TTITLE11=Waylon Jennings - Don't Think Twice
TTITLE12=Hank Williams - Your Cheatin' Heart
TTITLE13=Merle Haggard - Okie From Muskogee
TTITLE14=Kenny Rogers - Me And Bobby McGee
TTITLE15=Hank Locklin - Please Help Me, I'm Falling
TTITLE16=Waylon Jennings - Dream Baby
TTITLE17=Hank Williams - Hey Good Looking'
TTITLE18=Frankie Laine - Another Somebody Done Somebody Wrong Song
TTITLE19=Slim Whitman - Tennessee Waltz
TTITLE20=Lynn Anderson - Devil Went To Georgia
TTITLE21=Willie Nelson - Who Do I Know In Dallas?
TTITLE22=Patsy Cline - Walking After Midnight
TTITLE23=Johnny Cash - I'm So Lonesome I Could Cry
TTITLE24=The Everly Brothers - When Will I Be Loved?
EXTD=
EXTT0=
EXTT1=
EXTT2=
EXTT3=
EXTT4=
EXTT5=
EXTT6=
EXTT7=
EXTT8=
EXTT9=
EXTT10=
EXTT11=
EXTT12=
EXTT13=
EXTT14=
EXTT15=
EXTT16=
EXTT17=
EXTT18=
EXTT19=
EXTT20=
EXTT21=
EXTT22=
EXTT23=
EXTT24=
PLAYORDER=
